# xmcd
#
# Track frame offsets:
#	150
#	16125
#	30600
#	43575
#	58500
#	73575
#	87375
#	102900
#	116100
#	132300
#	140700
#	157650
#
# Disc length: 2257 seconds
#
# Revision: 0
# Processed by: cddbd v1.5.2PL0 Copyright (c) Steve Scherf et al.
# Submitted via: audiograbber 1.83.01
#
DISCID=9e08cf0c
DTITLE=Διάφοροι - Τα τραγούδια της Αθήνας
DYEAR=1900
DGENRE=
TTITLE0=Ραντεβού στην Αθήνα
TTITLE1=Ομορφη Αθήνα
TTITLE2=Τα τανγκο της Αθήνας
TTITLE3=Ακρόπολη Πλάκα
TTITLE4=Αθήνα καί πάλι Αθήνα
TTITLE5=Στης Πλάκας Της ανηφοριές
TTITLE6=Αθηναία Αθηναία
TTITLE7=Αγιε μου Γιώργη Λυκαβηττέ
TTITLE8=Λόντρα Παρίσι Αθήνα
TTITLE9=Η Αθήνα τη νύχτα
TTITLE10=Λαός καί Κολωνάκι
TTITLE11=Αθήνα
EXTD=
EXTT0=
EXTT1=
EXTT2=
EXTT3=
EXTT4=
EXTT5=
EXTT6=
EXTT7=
EXTT8=
EXTT9=
EXTT10=
EXTT11=
PLAYORDER=
